<svg width="60" height="60" viewBox="0 0 60 60" xmlns="http://www.w3.org/2000/svg">
  <g fill="none" fill-rule="evenodd">
    <g fill="#9C92AC" fill-opacity="0.05">
      <path d="M36 34v-4h-2v4h-4v2h4v4h2v-4h4v-2h-4zm0-30V0h-2v4h-4v2h4v4h2V6h4V4h-4zM6 34v-4H4v4H0v2h4v4h2v-4h4v-2H6zM6 4V0H4v4H0v2h4v4h2V6h4V4H6z"/>
    </g>
    <g fill="#FFD1DC" fill-opacity="0.15">
       <circle cx="20" cy="20" r="3"/>
       <circle cx="20" cy="14" r="3"/>
       <circle cx="26" cy="20" r="3"/>
       <circle cx="14" cy="20" r="3"/>
       <circle cx="20" cy="26" r="3"/>
       <circle cx="50" cy="50" r="3"/>
       <circle cx="50" cy="44" r="3"/>
       <circle cx="56" cy="50" r="3"/>
       <circle cx="44" cy="50" r="3"/>
       <circle cx="50" cy="56" r="3"/>
    </g>
  </g>
</svg>
