<svg width="512" height="512" viewBox="0 0 512 512" fill="none" xmlns="http://www.w3.org/2000/svg">
  <defs>
    <linearGradient id="mmGradient" x1="89" y1="62" x2="423" y2="450" gradientUnits="userSpaceOnUse">
      <stop stop-color="#FFC4D6"/>
      <stop offset="0.5" stop-color="#B5D8CC"/>
      <stop offset="1" stop-color="#E0C3FC"/>
    </linearGradient>
    <filter id="shadow" x="-20%" y="-20%" width="140%" height="140%">
      <feDropShadow dx="0" dy="12" stdDeviation="18" flood-color="#D1B7FF" flood-opacity="0.35"/>
    </filter>
  </defs>
  <g filter="url(#shadow)">
    <path
      d="M256 80C173 80 108 141 108 220C108 240 112 260 120 279C94 312 96 357 125 388C151 416 189 422 221 406C232 454 289 478 333 454C356 442 371 421 377 398C419 398 450 364 450 324C450 301 439 280 421 267C431 250 436 232 436 214C436 138 353 80 256 80Z"
      fill="url(#mmGradient)"
      stroke="#F4E7FF"
      stroke-width="8"
      stroke-linecap="round"
      stroke-linejoin="round"
    />
  </g>
  <circle cx="216" cy="234" r="18" fill="#5D4E7A"/>
  <circle cx="308" cy="234" r="18" fill="#5D4E7A"/>
  <path
    d="M214 298C228 316 246 326 266 326C286 326 304 316 318 298"
    stroke="#5D4E7A"
    stroke-width="12"
    stroke-linecap="round"
  />
</svg>

